<svg width="122" height="78" viewBox="0 0 122 78" fill="none" xmlns="http://www.w3.org/2000/svg">
<g filter="url(#filter0_d)">
<path d="M75.3945 14.014H75.2195V14.189V26.0494V26.2244H75.3945H76.2021H76.3771V26.0494V20.7788H78.5782L81.6578 26.1138L81.7083 26.2013H81.8093H82.7554H83.0597L82.9066 25.9383L79.8469 20.6814C80.5399 20.5537 81.1382 20.2995 81.6087 19.9142C82.3243 19.3282 82.7227 18.4561 82.7227 17.3271C82.7227 16.1422 82.325 15.2999 81.6024 14.7611C80.8896 14.2295 79.8875 14.014 78.7173 14.014H75.3945ZM81.519 17.3041C81.519 18.1394 81.2465 18.7293 80.7525 19.1161C80.2508 19.509 79.4942 19.7134 78.4866 19.7134H76.3541V15.0562H78.4866C79.5137 15.0562 80.2706 15.2174 80.768 15.5692C81.2521 15.9117 81.519 16.4564 81.519 17.3041Z" fill="#FDBE67" stroke="#FDBE67" stroke-width="0.35"/>
<path d="M90.8548 22.0018H90.9952L91.0256 21.8647C91.076 21.6381 91.076 21.3913 91.076 21.1891V21.1807C91.076 19.8858 90.7642 18.8438 90.174 18.1221C89.58 17.3958 88.72 17.0137 87.6705 17.0137C85.6605 17.0137 83.8035 18.8454 83.8035 21.7345C83.8035 23.1788 84.2539 24.3478 84.9942 25.1606C85.7348 25.9737 86.7564 26.4201 87.8763 26.4321L87.8763 26.4321H87.8781C89.1738 26.4321 89.9695 25.9726 90.6471 25.552L90.7869 25.4653L90.7089 25.3204L90.3859 24.7204L90.2917 24.5456L90.1301 24.661C89.5074 25.1058 88.8269 25.3899 87.9474 25.3899C87.0417 25.3899 86.3006 25.0207 85.78 24.3971C85.2866 23.806 84.9847 22.9776 84.9427 22.0018H90.8548ZM87.6936 18.0329C88.4086 18.0329 88.9779 18.2906 89.3731 18.7938C89.7509 19.2749 89.9839 19.9988 90.0085 20.9826H84.9811C85.2197 19.1089 86.4215 18.0329 87.6936 18.0329Z" fill="#FDBE67" stroke="#FDBE67" stroke-width="0.35"/>
<path d="M97.6505 25.183L97.7186 26.0177L97.7318 26.1784H97.8931H98.5622H98.7372V26.0034V20.4885C98.7372 19.5494 98.5679 18.677 98.1203 18.0348C97.665 17.3817 96.9385 16.9908 95.8856 16.9908C94.469 16.9908 93.2552 17.7086 92.6441 18.1551L92.5136 18.2505L92.5983 18.3881L92.9675 18.9881L93.0687 19.1525L93.2225 19.0357C93.787 18.6067 94.7417 18.0561 95.8163 18.0561C96.206 18.0561 96.5077 18.1397 96.7425 18.2764C96.9772 18.413 97.1546 18.6082 97.2874 18.8461C97.5349 19.2896 97.6231 19.8751 97.6267 20.4705C95.8083 20.6799 94.4611 21.0135 93.5591 21.5402C93.0923 21.8127 92.7395 22.1398 92.5042 22.5327C92.2685 22.9262 92.157 23.375 92.157 23.8805C92.157 24.7309 92.4503 25.3706 92.9354 25.7923C93.4167 26.2106 94.0675 26.3979 94.7564 26.3861C95.8305 26.3856 96.8271 25.8327 97.6505 25.183ZM94.252 22.3183C94.9224 21.9261 95.9981 21.631 97.6257 21.4248V24.0774C96.6031 24.9561 95.8043 25.3669 94.9395 25.3669C94.4795 25.3669 94.0745 25.257 93.7875 25.0204C93.5063 24.7885 93.3146 24.4154 93.3146 23.8344C93.3146 23.5141 93.3824 23.2361 93.5284 22.9908C93.6747 22.7448 93.9065 22.5204 94.252 22.3183Z" fill="#FDBE67" stroke="#FDBE67" stroke-width="0.35"/>
<path d="M106.994 16.658H106.994L106.994 16.6631L107.03 17.8892C106.285 17.3432 105.604 17.0137 104.654 17.0137C102.505 17.0137 100.718 18.8691 100.718 21.7345C100.718 23.2137 101.07 24.3817 101.71 25.1864C102.355 25.9957 103.277 26.4201 104.375 26.4321V26.4321H104.377C105.452 26.4321 106.358 25.901 107.045 25.2626L107.11 26.0409L107.123 26.2014H107.284H107.953H108.128V26.0264V13.1045V12.9295H107.953H107.169H106.994V13.1045V16.658ZM104.497 25.3438L104.497 25.3437H104.492C103.648 25.3437 103.003 24.9953 102.564 24.3788C102.119 23.755 101.875 22.8433 101.875 21.7114C101.875 19.6178 103.128 18.056 104.677 18.056C105.436 18.056 106.121 18.3194 106.971 19.0672V24.0409C106.125 24.9176 105.353 25.3647 104.497 25.3438Z" fill="#FDBE67" stroke="#FDBE67" stroke-width="0.35"/>
<path d="M109.792 29.7196L109.756 29.8574L109.883 29.9212C110.143 30.0511 110.494 30.1243 110.838 30.1243C111.651 30.1243 112.29 29.7408 112.779 29.1819C113.264 28.6268 113.608 27.8932 113.843 27.1662L117.165 17.4301L117.244 17.1985H116.999H116.192H116.065L116.026 17.3184L114.226 22.741L114.226 22.741L114.225 22.7439C114.183 22.8783 114.14 23.0184 114.095 23.1622C113.93 23.6938 113.75 24.2766 113.566 24.81C113.301 24.1277 113.015 23.3647 112.779 22.7347L110.748 17.3122L110.706 17.1985H110.585H109.754H109.496L109.591 17.438L113.053 26.1727L112.841 26.8734C112.625 27.5189 112.352 28.0647 112.016 28.4464C111.683 28.825 111.296 29.0359 110.838 29.0359C110.636 29.0359 110.38 28.9733 110.208 28.9086L110.027 28.8408L109.977 29.0274L109.792 29.7196Z" fill="#FDBE67" stroke="#FDBE67" stroke-width="0.35"/>
<path d="M74.0203 31.0336V31.2086H74.1953H77.7354V42.1787V42.3537H77.9104H78.718H78.893V42.1787V31.2316H82.4099H82.5849V31.0566V30.3413V30.1663H82.4099H74.1953H74.0203V30.3413V31.0336Z" fill="#FDBE67" stroke="#FDBE67" stroke-width="0.35"/>
<path d="M86.5659 41.4962L86.5659 41.4962H86.5636C84.9883 41.4962 83.7619 40.0685 83.7619 37.8638C83.7619 35.6338 84.9901 34.1854 86.5636 34.1854C88.1364 34.1854 89.3652 35.6561 89.3652 37.8638C89.3652 40.0934 88.138 41.5174 86.5659 41.4962ZM86.5866 33.1431C84.4425 33.1431 82.6043 34.9007 82.6043 37.8638C82.6043 39.3305 83.0542 40.5051 83.7827 41.3152C84.5115 42.1256 85.5109 42.5615 86.5866 42.5615C88.7302 42.5615 90.569 40.8045 90.569 37.8638C90.569 34.9007 88.7308 33.1431 86.5866 33.1431Z" fill="#FDBE67" stroke="#FDBE67" stroke-width="0.35"/>
<path d="M74.3673 56.6435L74.2602 56.76L74.3653 56.8782C75.3167 57.9486 76.6545 58.7137 78.4188 58.7137C79.5843 58.7137 80.5565 58.3626 81.2399 57.7616C81.9246 57.1594 82.3089 56.3151 82.3089 55.3544C82.3089 54.4005 82.0049 53.7227 81.5234 53.2073C81.0485 52.699 80.4099 52.3585 79.7616 52.0575L79.7611 52.0573L78.0074 51.2497L78.0073 51.2496C77.9967 51.2447 77.986 51.2398 77.9754 51.2349C77.5515 51.0403 77.0892 50.828 76.7262 50.5073C76.3624 50.1861 76.1017 49.7586 76.1017 49.1242C76.1017 48.5292 76.3389 48.0486 76.7473 47.7135C77.159 47.3757 77.757 47.1763 78.488 47.1763C79.6115 47.1763 80.4886 47.637 81.1273 48.3418L81.2625 48.491L81.3915 48.3363L81.8529 47.7825L81.9521 47.6636L81.8461 47.5507C81.1038 46.7605 79.9522 46.0879 78.488 46.0879C76.5046 46.0879 74.9441 47.317 74.9441 49.1704C74.9441 51.0414 76.3846 51.8215 77.3999 52.2831C77.4001 52.2831 77.4002 52.2832 77.4003 52.2833L79.1532 53.0905L79.1532 53.0905L79.156 53.0917C79.7362 53.347 80.2323 53.5841 80.5872 53.9283C80.9317 54.2624 81.1512 54.7064 81.1512 55.4006C81.1512 56.0549 80.8955 56.5991 80.4379 56.9826C79.9776 57.3684 79.2996 57.6023 78.4419 57.6023C77.1352 57.6023 75.9596 57.0044 75.1597 56.0712L75.0314 55.9216L74.898 56.0666L74.3673 56.6435Z" fill="#FDBE67" stroke="#FDBE67" stroke-width="0.35"/>
<path d="M85.2611 55.9773V50.5451H87.5321H87.7071V50.3701V49.6779V49.5029H87.5321H85.2611V47.1858V47.0108H85.0861H84.417H84.2483L84.2421 47.1793L84.1557 49.5114L82.9773 49.5723L82.8113 49.5809V49.7471V50.3701V50.5451H82.9863H84.1266V55.9311C84.1266 56.7157 84.2482 57.4124 84.603 57.9129C84.967 58.4264 85.553 58.7024 86.4027 58.6905C86.7806 58.6902 87.3574 58.543 87.8482 58.356L88.0033 58.2969L87.9525 58.1389L87.7448 57.4928L87.6843 57.3047L87.5049 57.3875C87.2148 57.5214 86.8032 57.6483 86.5168 57.6483C85.9812 57.6483 85.6873 57.4802 85.5148 57.2192C85.3314 56.9415 85.2611 56.5248 85.2611 55.9773Z" fill="#FDBE67" stroke="#FDBE67" stroke-width="0.35"/>
<path d="M89.4707 49.5262H89.2957V49.7012V55.2391C89.2957 56.3623 89.4994 57.2335 89.955 57.8263C90.4178 58.4286 91.1167 58.7138 92.032 58.7138C93.149 58.7138 94.0106 58.1233 94.7887 57.2644L94.8571 58.3422L94.8675 58.5061H95.0317H95.7009H95.8759V58.3311V49.7012V49.5262H95.7009H94.9164H94.7414V49.7012V56.0076C93.7772 57.1867 93.1126 57.6485 92.1935 57.6485C91.5545 57.6485 91.1307 57.4457 90.857 57.0565C90.5739 56.654 90.4303 56.0235 90.4303 55.1238V49.7012V49.5262H90.2553H89.4707Z" fill="#FDBE67" stroke="#FDBE67" stroke-width="0.35"/>
<path d="M104.318 48.94H104.318L104.318 48.9451L104.354 50.1712C103.61 49.6251 102.928 49.2957 101.978 49.2957C99.829 49.2957 98.0418 51.1511 98.0418 54.0164C98.0418 55.5068 98.3936 56.6807 99.0346 57.4857C99.6794 58.2955 100.603 58.7141 101.701 58.7141C102.776 58.7141 103.682 58.183 104.369 57.5446L104.434 58.3229L104.447 58.4834H104.609H105.278H105.453V58.3084V45.3865V45.2115H105.278H104.493H104.318V45.3865V48.94ZM101.844 57.6488L101.844 57.6488H101.84C100.995 57.6488 100.351 57.3004 99.9111 56.6838C99.4663 56.0601 99.2225 55.1484 99.2225 54.0164C99.2225 51.9228 100.475 50.361 102.024 50.361C102.783 50.361 103.468 50.6245 104.318 51.3722V56.3447C103.449 57.2233 102.677 57.6697 101.844 57.6488Z" fill="#FDBE67" stroke="#FDBE67" stroke-width="0.35"/>
<path d="M107.138 62.0241L107.101 62.1619L107.229 62.2257C107.486 62.3543 107.838 62.4296 108.168 62.4057C108.977 62.4036 109.614 62.0206 110.101 61.4633C110.587 60.9083 110.931 60.1747 111.165 59.4478L114.511 49.735L114.59 49.503H114.345H113.537H113.411L113.371 49.6229L111.572 55.0454L111.572 55.0454L111.571 55.0484C111.529 55.1827 111.485 55.3228 111.441 55.4667C111.276 55.9982 111.095 56.581 110.912 57.1145C110.647 56.4322 110.361 55.6692 110.125 55.0391L108.094 49.6166L108.052 49.503H107.93H107.1H106.842L106.937 49.7425L110.399 58.4772L110.186 59.1779C109.971 59.8233 109.698 60.3691 109.362 60.7508C109.029 61.1295 108.641 61.3404 108.184 61.3404C107.981 61.3404 107.726 61.2778 107.553 61.2131L107.373 61.1453L107.323 61.3318L107.138 62.0241Z" fill="#FDBE67" stroke="#FDBE67" stroke-width="0.35"/>
<path d="M66.2891 67.9531C66.2891 68.4369 66.6745 68.8223 67.1583 68.8223C67.6421 68.8223 68.0275 68.4369 68.0275 67.9531V5.35114C68.0275 4.86735 67.6421 4.48193 67.1583 4.48193C66.6745 4.48193 66.2891 4.86732 66.2891 5.35114V67.9531Z" fill="#FDBE67" stroke="#FDBE67"/>
</g>
<path d="M58.6179 44.4372C58.6179 55.023 50.0059 63.6104 39.3753 63.6104C28.7447 63.6104 20.1328 55.023 20.1328 44.4372C20.1328 33.8513 28.7447 25.2639 39.3753 25.2639C50.0059 25.2639 58.6179 33.8513 58.6179 44.4372Z" fill="#121921" stroke="#FDBE67" stroke-width="2"/>
<path d="M45.4484 48.8628L45.1423 49.1955L45.4427 49.5335C46.5217 50.7474 48.049 51.6221 50.0571 51.6221C51.3791 51.6221 52.5072 51.2233 53.3122 50.5153C54.121 49.804 54.5734 48.8055 54.5734 47.6796C54.5734 46.573 54.2171 45.7635 53.6405 45.1462C53.0831 44.5495 52.3444 44.1607 51.6397 43.8335L51.6383 43.8329L49.7424 42.9598L49.742 42.9596L49.7266 42.9525C49.2544 42.7356 48.7907 42.5225 48.433 42.2066C48.0956 41.9086 47.863 41.5273 47.863 40.9443C47.863 40.3917 48.0795 39.9612 48.4473 39.6595C48.8243 39.3501 49.3957 39.1493 50.132 39.1493C51.2516 39.1493 52.1184 39.6048 52.7549 40.3072L53.1413 40.7335L53.5096 40.2915L54.0085 39.6928L54.2917 39.3529L53.9888 39.0304C53.1384 38.1252 51.8153 37.3511 50.132 37.3511C47.8665 37.3511 45.9899 38.7725 45.9899 40.9942C45.9899 43.2253 47.7283 44.1427 48.8263 44.6419C48.8267 44.6421 48.8271 44.6422 48.8275 44.6424L50.7211 45.5145L50.7211 45.5146L50.7289 45.518C51.362 45.7966 51.8471 46.0334 52.1849 46.361C52.4931 46.6598 52.7003 47.0575 52.7003 47.7295C52.7003 48.3492 52.4614 48.8487 52.0403 49.2016C51.6114 49.5611 50.9549 49.7989 50.0821 49.7989C48.7667 49.7989 47.5799 49.1973 46.7698 48.2523L46.4034 47.8248L46.0222 48.2391L45.4484 48.8628Z" fill="#FDBE67" stroke="#FDBE67"/>
<path d="M34.3555 39.0301V39.5301H34.8555H38.3717V51.0788V51.5788H38.8717H39.7448H40.2448V51.0788V39.555H43.7361H44.2361V39.055V38.2817V37.7817H43.7361H34.8555H34.3555V38.2817V39.0301Z" fill="#FDBE67" stroke="#FDBE67"/>
<path d="M24.8184 37.7817H24.3184V38.2817V51.1037V51.6037H24.8184H25.6915H26.1915V51.1037V45.7166H28.0806L31.3202 51.3287L31.4645 51.5788H31.7532H32.776H33.6455L33.2081 50.8273L30.1138 45.5109C30.7302 45.3474 31.2785 45.084 31.7333 44.7116C32.5892 44.0106 33.0515 42.9738 33.0515 41.6743C33.0515 40.3174 32.5914 39.3044 31.7153 38.6511C30.867 38.0185 29.7047 37.7817 28.4105 37.7817H24.8184ZM28.1611 43.9433H26.1665V39.5301H28.1611C29.2515 39.5301 29.99 39.7037 30.4479 40.0276C30.8681 40.3249 31.1285 40.8053 31.1285 41.6494C31.1285 42.4787 30.8622 43.0166 30.4191 43.3636C29.9539 43.7279 29.2162 43.9433 28.1611 43.9433Z" fill="#FDBE67" stroke="#FDBE67"/>
<path d="M44.5425 25.4419C38.1602 24.1771 27.4227 28.5509 22.2896 34.3153L19.9595 28.1508L10.5477 27.0003L10.5477 32.097L12.515 39.4453C12.6436 40.9539 9.28901 40.9601 8.44756 39.7226L10.5477 32.097L10.5477 27.0003L8.44756 26.7436L24.231 8.2941L50.1766 10.8747L42.4439 19.6003L44.5425 25.4419Z" fill="#121921"/>
<path d="M10.5477 27.0003L8.44756 26.7436L24.231 8.2941L50.1766 10.8747L42.4439 19.6003L44.5425 25.4419C38.1602 24.1771 27.4227 28.5509 22.2896 34.3153L19.9595 28.1508L10.5477 27.0003ZM10.5477 27.0003L10.5477 32.097M10.5477 32.097L8.44756 39.7226C9.28901 40.9601 12.6436 40.9539 12.515 39.4453L10.5477 32.097Z" stroke="#FDBE67" stroke-width="2"/>
<defs>
<filter id="filter0_d" x="61.7891" y="3.98193" width="59.6992" height="73.3403" filterUnits="userSpaceOnUse" color-interpolation-filters="sRGB">
<feFlood flood-opacity="0" result="BackgroundImageFix"/>
<feColorMatrix in="SourceAlpha" type="matrix" values="0 0 0 0 0 0 0 0 0 0 0 0 0 0 0 0 0 0 127 0"/>
<feOffset dy="4"/>
<feGaussianBlur stdDeviation="2"/>
<feColorMatrix type="matrix" values="0 0 0 0 0 0 0 0 0 0 0 0 0 0 0 0 0 0 0.25 0"/>
<feBlend mode="normal" in2="BackgroundImageFix" result="effect1_dropShadow"/>
<feBlend mode="normal" in="SourceGraphic" in2="effect1_dropShadow" result="shape"/>
</filter>
</defs>
</svg>
