<svg width="36" height="32" viewBox="0 0 36 32" fill="none" xmlns="http://www.w3.org/2000/svg">
<path fill-rule="evenodd" clip-rule="evenodd" d="M30.5936 6.02292C27.7481 2.35538 22.0364 2.97045 20.0369 7.15974C19.2196 8.87225 16.7819 8.87225 15.9646 7.15974C13.9652 2.97045 8.25346 2.35538 5.40795 6.02293L4.86658 6.7207C2.4024 9.89675 2.7582 14.426 5.68808 17.1783L17.8552 28.6079C17.9096 28.6591 17.9575 28.704 18.0008 28.7444C18.0441 28.704 18.0919 28.6591 18.1464 28.6079L30.3134 17.1783C33.2433 14.426 33.5991 9.89674 31.1349 6.72069L30.5936 6.02292ZM18.0008 5.39567C21.0977 0.0207919 28.7725 -0.606494 32.6675 4.41381L33.2089 5.11157C36.5031 9.35738 36.0275 15.4121 32.1107 19.0915L19.913 30.55C19.7307 30.7214 19.5314 30.9086 19.3435 31.0534C19.1274 31.2198 18.8253 31.4124 18.422 31.4915C18.1438 31.5461 17.8577 31.5461 17.5795 31.4915C17.1762 31.4124 16.8741 31.2198 16.658 31.0534C16.4701 30.9086 16.2709 30.7214 16.0885 30.55L3.89081 19.0915C-0.0259274 15.4121 -0.50156 9.35739 2.7926 5.11158L3.33398 4.41381C7.22904 -0.606486 14.9038 0.0207907 18.0008 5.39567Z" fill="#333333"/>
</svg>
