<svg width="36" height="31" viewBox="0 0 36 31" fill="none" xmlns="http://www.w3.org/2000/svg">
<path d="M32.6675 3.61831C28.7725 -1.402 21.0977 -0.774709 18.0008 4.60017C14.9038 -0.774712 7.22904 -1.40199 3.33398 3.61831L2.79261 4.31608C-0.50156 8.56189 -0.0259269 14.6166 3.89081 18.296L16.0886 29.7546C16.2709 29.9259 16.4701 30.1132 16.658 30.2579C16.8741 30.4243 17.1762 30.6169 17.5795 30.696C17.8577 30.7506 18.1438 30.7506 18.422 30.696C18.8253 30.6169 19.1274 30.4243 19.3435 30.2579C19.5314 30.1131 19.7306 29.9259 19.9129 29.7545L32.1107 18.296C36.0275 14.6166 36.5031 8.56188 33.2089 4.31607L32.6675 3.61831Z" fill="#232F3F"/>
</svg>
